<svg xmlns="http://www.w3.org/2000/svg" width="560" height="186" viewBox="0 0 560 186" role="img" aria-label="CIEL locale coverage (above 50%)" font-family="-apple-system, Segoe UI, Helvetica, Arial, sans-serif"><title>CIEL locale coverage (above 50%)</title><rect width="560" height="186" rx="8" fill="#ffffff" stroke="#d0d7de"/><text x="16" y="28" font-size="15" font-weight="600" fill="#1f2328">CIEL locale coverage (above 50%)</text><text x="16" y="59" font-size="13" fill="#1f2328">en</text><rect x="96" y="48" width="380" height="14" rx="7" fill="#eaeef2"/><rect x="96" y="48" width="380.0" height="14" rx="7" fill="#2b6cb0"/><text x="486" y="59" font-size="13" fill="#1f2328">100%</text><text x="16" y="85" font-size="13" fill="#1f2328">es</text><rect x="96" y="74" width="380" height="14" rx="7" fill="#eaeef2"/><rect x="96" y="74" width="380.0" height="14" rx="7" fill="#2b6cb0"/><text x="486" y="85" font-size="13" fill="#1f2328">100%</text><text x="16" y="111" font-size="13" fill="#1f2328">fr</text><rect x="96" y="100" width="380" height="14" rx="7" fill="#eaeef2"/><rect x="96" y="100" width="380.0" height="14" rx="7" fill="#2b6cb0"/><text x="486" y="111" font-size="13" fill="#1f2328">100%</text><text x="16" y="137" font-size="13" fill="#1f2328">ru</text><rect x="96" y="126" width="380" height="14" rx="7" fill="#eaeef2"/><rect x="96" y="126" width="378.9" height="14" rx="7" fill="#2b6cb0"/><text x="486" y="137" font-size="13" fill="#1f2328">99.7%</text><text x="16" y="163" font-size="13" fill="#1f2328">pt</text><rect x="96" y="152" width="380" height="14" rx="7" fill="#eaeef2"/><rect x="96" y="152" width="373.2" height="14" rx="7" fill="#2b6cb0"/><text x="486" y="163" font-size="13" fill="#1f2328">98.2%</text></svg>